<?xml version="1.0" encoding="UTF-8" standalone="no"?>
<svg
   xmlns:dc="http://purl.org/dc/elements/1.1/"
   xmlns:cc="http://creativecommons.org/ns#"
   xmlns:rdf="http://www.w3.org/1999/02/22-rdf-syntax-ns#"
   xmlns:svg="http://www.w3.org/2000/svg"
   xmlns="http://www.w3.org/2000/svg"
   xmlns:sodipodi="http://sodipodi.sourceforge.net/DTD/sodipodi-0.dtd"
   xmlns:inkscape="http://www.inkscape.org/namespaces/inkscape"
   version="1.1"
   id="svg2"
   width="30"
   height="30"
   viewBox="0 0 30 30"
   sodipodi:docname="loading.svg"
   inkscape:version="1.0 (b51213c273, 2020-08-10)">
  <metadata
     id="metadata8">
    <rdf:RDF>
      <cc:Work
         rdf:about="">
        <dc:format>image/svg+xml</dc:format>
        <dc:type
           rdf:resource="http://purl.org/dc/dcmitype/StillImage" />
        <dc:title></dc:title>
      </cc:Work>
    </rdf:RDF>
  </metadata>
  <defs
     id="defs6" />
  <sodipodi:namedview
     pagecolor="#ffffff"
     bordercolor="#666666"
     borderopacity="1"
     objecttolerance="10"
     gridtolerance="10"
     guidetolerance="10"
     inkscape:pageopacity="0"
     inkscape:pageshadow="2"
     inkscape:window-width="1366"
     inkscape:window-height="711"
     id="namedview4"
     showgrid="false"
     inkscape:zoom="6.4162031"
     inkscape:cx="19.257546"
     inkscape:cy="22.874973"
     inkscape:window-x="0"
     inkscape:window-y="0"
     inkscape:window-maximized="1"
     inkscape:current-layer="g10"
     inkscape:document-rotation="0" />
  <g
     inkscape:groupmode="layer"
     inkscape:label="Image"
     id="g10">
    <path
       style="fill:#000000;stroke-width:0.0364582"
       d="m 14.66256,29.537426 c -0.233667,-0.0899 -0.473943,-0.324436 -0.595913,-0.581646 -0.09123,-0.192358 -0.09508,-0.226493 -0.09508,-0.838535 0,-0.574812 0.0078,-0.654716 0.07792,-0.806543 0.106924,-0.23124 0.319055,-0.456261 0.53955,-0.57233 0.158997,-0.08369 0.227578,-0.09696 0.494498,-0.09569 0.369952,0.0021 0.587821,0.09481 0.825202,0.352346 0.249385,0.270553 0.286805,0.42187 0.286522,1.15867 -3.63e-4,0.598392 -0.0056,0.648904 -0.08705,0.813334 -0.265543,0.53629 -0.89195,0.783449 -1.445638,0.570389 z M 8.0653511,27.776763 C 7.5530834,27.607087 7.2461207,27.214521 7.2454003,26.728164 c 0,-0.132353 0.018977,-0.296419 0.042631,-0.364581 0.072676,-0.209562 0.9450986,-1.713751 1.0815876,-1.864831 0.070732,-0.07828 0.2116785,-0.186044 0.3132109,-0.239444 0.1602501,-0.08428 0.2278877,-0.09711 0.5127269,-0.09711 0.2852425,0 0.3523711,0.0127 0.5136952,0.09758 0.4391961,0.230949 0.6918201,0.789123 0.5665951,1.251899 -0.0614,0.226959 -0.9712583,1.7996 -1.1423515,1.974527 -0.2635673,0.269469 -0.7402818,0.399136 -1.0681373,0.290537 z m 13.3034629,-0.07278 c -0.726901,-0.347083 -0.88071,-1.317756 -0.291048,-1.836797 0.286808,-0.252459 0.74631,-0.337099 1.126598,-0.207518 0.219391,0.07475 0.493685,0.322302 0.607449,0.548218 0.104313,0.207123 0.139206,0.572455 0.07683,0.804102 -0.06354,0.23594 -0.252644,0.477082 -0.488898,0.623396 -0.193723,0.119985 -0.240136,0.132659 -0.528638,0.144467 -0.27598,0.01129 -0.339978,0.0016 -0.502292,-0.07587 z M 3.1879035,22.865917 C 2.8703869,22.786596 2.6401361,22.616059 2.4690417,22.333479 2.3468206,22.131623 2.341441,22.108043 2.3415418,21.774953 c 0,-0.397085 0.063747,-0.56335 0.3027178,-0.79109 0.074073,-0.07058 0.6842842,-0.446392 1.3560246,-0.835113 0.902341,-0.522172 1.272474,-0.717441 1.4170957,-0.7476 0.5123223,-0.106826 1.0353942,0.165191 1.2546161,0.652455 0.169368,0.37646 0.064718,0.913339 -0.2367919,1.214856 -0.1199724,0.119973 -2.3194221,1.429675 -2.5926406,1.54383 -0.1697059,0.07091 -0.4828038,0.09656 -0.6546552,0.05362 z M 1.2032982,16.082691 c -0.23338779,-0.09047 -0.47478055,-0.31895 -0.59346373,-0.561711 -0.07191,-0.147072 -0.089114,-0.238631 -0.089114,-0.473955 0,-0.235323 0.0172152,-0.326876 0.089114,-0.473954 0.12272884,-0.251038 0.3602145,-0.471727 0.60698203,-0.564057 0.1992111,-0.07454 0.2505544,-0.07606 2.1955402,-0.06603 l 1.9915583,0.01032 0.195248,0.108138 c 0.3858528,0.213719 0.5884267,0.55192 0.5887766,0.982977 3.657e-4,0.427731 -0.222575,0.800181 -0.5972408,0.997825 l -0.1867838,0.09853 -2.0051943,0.0078 c -1.9357187,0.0077 -2.0117841,0.0052 -2.1954225,-0.06591 z m 21.7508758,0.02595 c -0.608134,-0.217315 -0.913884,-0.832777 -0.711605,-1.43243 0.08059,-0.238939 0.288477,-0.476109 0.538875,-0.614799 l 0.19525,-0.108138 2.885671,-0.01 c 2.823898,-0.0098 2.889907,-0.0082 3.083597,0.06409 0.267512,0.100096 0.476754,0.288123 0.60007,0.539251 0.14105,0.287221 0.146615,0.702333 0.01303,0.973735 -0.122717,0.249363 -0.36255,0.472475 -0.605711,0.563453 -0.196629,0.07357 -0.260116,0.07511 -3.034073,0.07355 -2.22101,-0.0016 -2.86175,-0.01178 -2.965142,-0.04871 z m -1.112612,-4.109122 c -0.192282,-0.05572 -0.462854,-0.260957 -0.585,-0.443724 -0.289322,-0.432907 -0.228703,-1.01836 0.143348,-1.384455 0.1769,-0.1740729 4.709162,-2.8029713 5.035719,-2.9209318 0.24377,-0.088044 0.541582,-0.063795 0.806225,0.06569 0.672616,0.3290776 0.824204,1.2769267 0.286099,1.7888956 -0.157814,0.1501494 -4.809205,2.8422492 -5.006979,2.8979142 -0.155226,0.04371 -0.523318,0.04185 -0.679408,-0.0036 z M 6.8942867,11.564318 C 6.8317188,11.544964 6.0770245,11.125332 5.2172163,10.631761 4.3574067,10.138188 3.4496204,9.6174363 3.1999093,9.4745325 2.6815876,9.1779088 2.5330395,9.0457145 2.4058518,8.7679037 2.2865235,8.5072534 2.2970081,8.1037796 2.4302107,7.8314006 2.6618186,7.3577646 3.2015797,7.1033565 3.693573,7.2359359 c 0.1921623,0.051779 4.0308891,2.2521793 4.2633619,2.4438021 0.067841,0.055922 0.1747599,0.2061009 0.2375926,0.33373 0.3555723,0.722266 -0.1272617,1.538652 -0.9312523,1.574596 -0.1403559,0.0062 -0.3064073,-0.0046 -0.3689885,-0.02375 z M 10.496342,8.9377954 C 10.373224,8.8762724 10.218842,8.7628338 10.153282,8.6857163 10.047913,8.561753 7.6473931,4.4354425 7.3763893,3.9124229 7.1534717,3.4822077 7.2144821,3.0107792 7.5390402,2.6556576 7.7740425,2.3985293 8.0125571,2.2921215 8.358307,2.290168 c 0.298084,-0.0017 0.5758767,0.1112978 0.7720323,0.3139775 0.096063,0.09927 2.5230547,4.2390746 2.8464487,4.8552973 0.08394,0.1599452 0.09791,0.2308267 0.09791,0.4964762 0,0.2657311 -0.01404,0.3365141 -0.09802,0.4966805 -0.121951,0.2323745 -0.380549,0.4641208 -0.602175,0.539636 -0.0927,0.031575 -0.277835,0.057429 -0.41142,0.057429 -0.198137,0 -0.284142,-0.020617 -0.466756,-0.1118688 z m 8.281267,0.052168 C 18.298166,8.820079 17.977165,8.1931068 18.106549,7.6792767 c 0.06072,-0.2410768 2.73415,-4.8709964 2.928396,-5.0714539 0.215971,-0.2228691 0.45705,-0.3195612 0.79332,-0.3181824 0.45584,0.00182 0.801467,0.2158736 0.998488,0.6182431 0.115599,0.2360811 0.139357,0.5577441 0.05912,0.8006762 -0.02651,0.080196 -0.403256,0.7610617 -0.837266,1.5130079 -0.434003,0.7519486 -1.04257,1.8093497 -1.352375,2.349779 -0.625439,1.0910444 -0.797826,1.3115723 -1.107836,1.417205 -0.218552,0.074462 -0.60273,0.075142 -0.810796,0.00134 z M 14.624075,7.8685975 C 14.382389,7.756069 14.186127,7.5567145 14.067069,7.3028325 l -0.09552,-0.2036723 -0.01117,-2.7343525 c -0.0079,-1.933528 9.04e-4,-2.7984207 0.03022,-2.9531029 0.109415,-0.57748163 0.584941,-0.95677988 1.157894,-0.92359463 0.42661,0.0247111 0.76427,0.25535326 0.951825,0.65015873 l 0.09525,0.2005207 v 2.8984138 2.898415 l -0.08705,0.1753223 c -0.125178,0.2520962 -0.368393,0.4801674 -0.60743,0.5696029 -0.284034,0.1062682 -0.633269,0.1015179 -0.876937,-0.012028 z"
       id="path14" />
  </g>
</svg>
