<?xml version="1.0" encoding="UTF-8" standalone="no"?>
<svg
   xmlns:dc="http://purl.org/dc/elements/1.1/"
   xmlns:cc="http://creativecommons.org/ns#"
   xmlns:rdf="http://www.w3.org/1999/02/22-rdf-syntax-ns#"
   xmlns:svg="http://www.w3.org/2000/svg"
   xmlns="http://www.w3.org/2000/svg"
   xmlns:sodipodi="http://sodipodi.sourceforge.net/DTD/sodipodi-0.dtd"
   xmlns:inkscape="http://www.inkscape.org/namespaces/inkscape"
   version="1.1"
   id="svg2"
   width="24"
   height="24"
   viewBox="0 0 24 24"
   sodipodi:docname="loading.svg"
   inkscape:version="1.0 (b51213c273, 2020-08-10)">
  <metadata
     id="metadata8">
    <rdf:RDF>
      <cc:Work
         rdf:about="">
        <dc:format>image/svg+xml</dc:format>
        <dc:type
           rdf:resource="http://purl.org/dc/dcmitype/StillImage" />
        <dc:title></dc:title>
      </cc:Work>
    </rdf:RDF>
  </metadata>
  <defs
     id="defs6" />
  <sodipodi:namedview
     pagecolor="#ffffff"
     bordercolor="#666666"
     borderopacity="1"
     objecttolerance="10"
     gridtolerance="10"
     guidetolerance="10"
     inkscape:pageopacity="0"
     inkscape:pageshadow="2"
     inkscape:window-width="1366"
     inkscape:window-height="711"
     id="namedview4"
     showgrid="false"
     inkscape:zoom="18.147763"
     inkscape:cx="7.995326"
     inkscape:cy="9.7643433"
     inkscape:window-x="0"
     inkscape:window-y="0"
     inkscape:window-maximized="1"
     inkscape:current-layer="g10"
     inkscape:document-rotation="0" />
  <g
     inkscape:groupmode="layer"
     inkscape:label="Image"
     id="g10">
    <path
       style="fill:#000000;stroke-width:0.0281435"
       d="m 11.515745,23.296526 c -0.180377,-0.0694 -0.365856,-0.250445 -0.46001,-0.448995 -0.07042,-0.148489 -0.0734,-0.174839 -0.0734,-0.647299 0,-0.443719 0.006,-0.505401 0.06015,-0.622603 0.08254,-0.178503 0.246291,-0.352205 0.416501,-0.441803 0.122736,-0.06461 0.175676,-0.07485 0.381722,-0.07386 0.285581,0.0016 0.453762,0.07319 0.637007,0.271989 0.19251,0.20885 0.221395,0.325658 0.221178,0.894423 -2.81e-4,0.461923 -0.0043,0.500915 -0.0672,0.627846 -0.204982,0.413983 -0.688531,0.604774 -1.115945,0.440305 z M 6.4230978,21.9374 C 6.0276575,21.80642 5.7907013,21.503384 5.790145,21.127945 c 0,-0.102169 0.014652,-0.228817 0.032907,-0.281434 0.056099,-0.16177 0.7295594,-1.322913 0.8349203,-1.439537 0.054597,-0.06043 0.1634031,-0.143615 0.24178,-0.184837 0.1237028,-0.06506 0.1759158,-0.07496 0.3957942,-0.07496 0.2201894,0 0.2720093,0.0098 0.3965414,0.07533 0.3390329,0.178278 0.5340441,0.609156 0.4373775,0.966391 -0.047402,0.175198 -0.749753,1.389182 -0.8818265,1.524215 -0.2034574,0.208014 -0.5714527,0.30811 -0.8245375,0.224278 z M 16.692569,21.88122 c -0.561124,-0.267927 -0.679856,-1.017228 -0.224672,-1.417897 0.221399,-0.194882 0.576106,-0.26022 0.869666,-0.160191 0.169357,0.05771 0.381095,0.248798 0.468914,0.423192 0.08052,0.159885 0.107458,0.4419 0.05931,0.620718 -0.04905,0.182131 -0.195026,0.368278 -0.3774,0.481224 -0.149543,0.09262 -0.185371,0.102405 -0.408077,0.11152 -0.21304,0.0087 -0.262442,0.0012 -0.387739,-0.05857 z M 2.6580022,18.146528 c -0.2451035,-0.06123 -0.4228435,-0.192876 -0.5549181,-0.411011 -0.094347,-0.15582 -0.0985,-0.174023 -0.098422,-0.431148 0,-0.306526 0.049204,-0.434873 0.2336798,-0.610673 0.057183,-0.05449 0.5282266,-0.344588 1.046769,-0.644658 0.6965528,-0.403085 0.9822733,-0.553821 1.0939127,-0.577101 0.3954821,-0.08246 0.7992615,0.127516 0.9684874,0.503656 0.1307426,0.290603 0.049962,0.705042 -0.1827884,0.937795 -0.092611,0.09261 -1.7904537,1.103623 -2.0013622,1.191743 -0.1310025,0.05474 -0.3726951,0.07454 -0.5053547,0.0414 z M 1.1260068,12.910286 c -0.18016107,-0.06984 -0.36650142,-0.246211 -0.45811829,-0.433608 -0.0555115,-0.11353 -0.068792,-0.184208 -0.068792,-0.365864 0,-0.181655 0.0132935,-0.252328 0.068792,-0.365864 0.0947391,-0.193786 0.27806429,-0.364145 0.46855329,-0.435417 0.1537791,-0.05754 0.1934128,-0.05872 1.6948253,-0.05097 l 1.5373624,0.008 0.1507194,0.08348 c 0.2978557,0.164978 0.4542308,0.426048 0.4545011,0.758798 2.821e-4,0.330184 -0.1718154,0.617692 -0.4610342,0.770262 l -0.1441863,0.07606 -1.5478889,0.006 c -1.4942577,0.0059 -1.5529763,0.004 -1.6947338,-0.05088 z m 16.7903642,0.02003 c -0.469443,-0.167755 -0.705464,-0.642855 -0.549316,-1.10575 0.06221,-0.184447 0.222687,-0.367528 0.415979,-0.474588 l 0.150721,-0.08348 2.227564,-0.0077 c 2.179878,-0.0076 2.230834,-0.0064 2.38035,0.04948 0.206504,0.07727 0.368027,0.222413 0.463219,0.416269 0.108881,0.221718 0.113178,0.542158 0.01006,0.751664 -0.09473,0.192494 -0.279868,0.364722 -0.467573,0.434952 -0.151786,0.05679 -0.200793,0.05798 -2.342121,0.05678 -1.714486,-0.0012 -2.209099,-0.0091 -2.288911,-0.03761 z M 17.057502,9.7583181 c -0.14843,-0.043015 -0.357296,-0.2014451 -0.451586,-0.34253 -0.223339,-0.3341792 -0.176544,-0.7861136 0.110657,-1.0687157 0.136557,-0.1343742 3.635188,-2.163726 3.887271,-2.2547839 0.188176,-0.067969 0.418068,-0.049243 0.622358,0.050706 0.519218,0.2540289 0.636235,0.9857102 0.22085,1.3809194 -0.121822,0.1159069 -3.712416,2.1940444 -3.865086,2.2370146 -0.119825,0.033743 -0.403969,0.032307 -0.524461,-0.00274 z M 5.5191061,9.4223708 C 5.4708029,9.407432 4.8882296,9.0834998 4.2245097,8.7024937 3.5607885,8.3214843 2.8600323,7.9194952 2.6672698,7.8091825 2.2671571,7.5802063 2.1524869,7.4781609 2.0543055,7.263707 1.9621911,7.0625009 1.9702874,6.7510435 2.0731097,6.540784 2.251897,6.1751653 2.6685599,5.9787778 3.0483496,6.0811209 3.1966873,6.1210928 6.1599528,7.8196672 6.3394074,7.9675882 6.3917719,8.0107595 6.4743118,8.126686 6.5228149,8.2252069 6.7972946,8.7827536 6.424576,9.4129544 5.8039439,9.440701 5.6955978,9.4455326 5.5674159,9.4371752 5.5191074,9.4223669 Z M 8.2996762,7.3948532 C 8.2046367,7.3473595 8.0854626,7.2597934 8.0348545,7.2002638 7.9535134,7.1045714 6.1004598,3.9193093 5.8912606,3.5155691 5.7191814,3.1834689 5.766278,2.8195543 6.0168177,2.5454219 6.1982246,2.3469346 6.3823437,2.2647943 6.6492417,2.263286 c 0.2301031,-0.00131 0.4445427,0.085912 0.5959634,0.2423716 0.074159,0.076627 1.9476452,3.2723098 2.1972851,3.7479969 0.064796,0.1234678 0.075582,0.1781841 0.075582,0.3832502 0,0.2051276 -0.010839,0.2597681 -0.075661,0.3834069 -0.094138,0.1793789 -0.2937606,0.3582733 -0.4648421,0.4165663 -0.07156,0.02438 -0.2144722,0.044333 -0.3175923,0.044333 -0.1529485,0 -0.2193391,-0.015918 -0.3603065,-0.086356 z m 6.3926378,0.040272 c -0.3701,-0.1311409 -0.617893,-0.6151254 -0.518018,-1.011771 0.04687,-0.1860975 2.110599,-3.7601152 2.260546,-3.9148567 0.166716,-0.1720413 0.352815,-0.2466822 0.612395,-0.2456179 0.351881,0.00144 0.618684,0.1666416 0.770772,0.4772463 0.08924,0.1822413 0.107576,0.4305454 0.04564,0.6180741 -0.02046,0.06191 -0.31129,0.5874937 -0.646319,1.1679515 -0.335024,0.5804591 -0.804802,1.3967084 -1.043952,1.8138871 -0.482801,0.8422212 -0.615874,1.0124552 -0.855184,1.0939962 -0.168708,0.057483 -0.465271,0.058006 -0.625884,0.00108 z M 11.486036,6.5694983 C 11.299469,6.4826334 11.147967,6.3287433 11.056061,6.1327619 l -0.07373,-0.1572226 -0.0086,-2.1107556 c -0.0061,-1.4925666 6.96e-4,-2.1602119 0.02332,-2.2796171 0.08446,-0.4457807 0.45154,-0.73857621 0.893824,-0.71295951 0.329318,0.019078 0.589971,0.19711751 0.734752,0.50188381 l 0.07353,0.1547898 v 2.2374004 2.2374018 l -0.0672,0.1353379 c -0.09663,0.1946037 -0.284378,0.3706606 -0.468899,0.4396993 -0.219258,0.082033 -0.488846,0.078364 -0.676943,-0.00927 z"
       id="path14" />
  </g>
</svg>
