<?xml version="1.0" encoding="UTF-8" standalone="no"?>
<svg
   xmlns:dc="http://purl.org/dc/elements/1.1/"
   xmlns:cc="http://creativecommons.org/ns#"
   xmlns:rdf="http://www.w3.org/1999/02/22-rdf-syntax-ns#"
   xmlns:svg="http://www.w3.org/2000/svg"
   xmlns="http://www.w3.org/2000/svg"
   xmlns:sodipodi="http://sodipodi.sourceforge.net/DTD/sodipodi-0.dtd"
   xmlns:inkscape="http://www.inkscape.org/namespaces/inkscape"
   width="24"
   height="24"
   viewBox="0 0 24 24"
   fill="none"
   version="1.1"
   id="svg4"
   sodipodi:docname="search.svg"
   inkscape:version="1.0 (b51213c273, 2020-08-10)">
  <metadata
     id="metadata10">
    <rdf:RDF>
      <cc:Work
         rdf:about="">
        <dc:format>image/svg+xml</dc:format>
        <dc:type
           rdf:resource="http://purl.org/dc/dcmitype/StillImage" />
      </cc:Work>
    </rdf:RDF>
  </metadata>
  <defs
     id="defs8" />
  <sodipodi:namedview
     pagecolor="#ffffff"
     bordercolor="#666666"
     borderopacity="1"
     objecttolerance="10"
     gridtolerance="10"
     guidetolerance="10"
     inkscape:pageopacity="0"
     inkscape:pageshadow="2"
     inkscape:window-width="1366"
     inkscape:window-height="711"
     id="namedview6"
     showgrid="false"
     inkscape:zoom="5.6770833"
     inkscape:cx="-23.787618"
     inkscape:cy="21.430017"
     inkscape:window-x="0"
     inkscape:window-y="0"
     inkscape:window-maximized="1"
     inkscape:current-layer="svg4" />
  <path
     fill-rule="evenodd"
     clip-rule="evenodd"
     d="m 15.236504,10.591142 c 0,2.565561 -2.079801,4.645362 -4.64538,4.645362 -2.5655553,0 -4.6453559,-2.079801 -4.6453559,-4.645362 0,-2.5655733 2.0798006,-4.6453739 4.6453559,-4.6453739 2.565579,0 4.64538,2.0798006 4.64538,4.6453739 z m -0.956347,4.541231 c -1.006546,0.81865 -2.290475,1.309358 -3.689033,1.309358 -3.2311904,0 -5.8505832,-2.61938 -5.8505832,-5.850589 0,-3.2311963 2.6193928,-5.8506012 5.8505832,-5.8506012 3.231166,0 5.850607,2.6194049 5.850607,5.8506012 0,1.39854 -0.490708,2.682469 -1.309358,3.689015 l 3.985686,3.985686 -0.852216,0.852216 z"
     fill="black"
     id="path2"
     style="fill:#ffffff;stroke-width:0.602614" />
</svg>
